<?xml version="1.0" encoding="utf-8"?>
<!-- Generator: Adobe Illustrator 23.0.0, SVG Export Plug-In . SVG Version: 6.00 Build 0)  -->
<svg version="1.1" xmlns="http://www.w3.org/2000/svg" xmlns:xlink="http://www.w3.org/1999/xlink" x="0px" y="0px"
	 viewBox="0 0 500 500" style="enable-background:new 0 0 500 500;" xml:space="preserve">
<style type="text/css">
	.st0{fill:#F0F0F0;}
	.st1{fill:#E0E0E0;}
	.st2{fill:#283891;}
	.st3{fill:#309299;}
	.st4{fill:#FFFFFF;}
	.st5{fill:#69C4D2;}
	.st6{fill:#1A2875;}
	.st7{opacity:0.4;fill:#FFFFFF;}
	.st8{fill:#FAFAFA;}
	.st9{fill:#455A64;}
	.st10{opacity:0.5;fill:#FFFFFF;}
	.st11{opacity:0.31;}
	.st12{fill:#AF6828;}
	.st13{fill:#37474F;}
	.st14{fill:#263238;}
	.st15{fill:#F5F5F5;}
	.st16{fill:#441F00;}
	.st17{fill:#E6E6E6;}
	.st18{opacity:0.3;}
	.st19{opacity:0.4;}
	.st20{opacity:0.5;}
</style>
<g id="Floor">
	<ellipse id="Floor_4_" class="st0" cx="250" cy="356.46" rx="217.36" ry="128.93"/>
</g>
<g id="Shadows">
	<ellipse id="Shadow_35_" class="st1" cx="330.97" cy="337.09" rx="70.77" ry="40.86"/>
	<ellipse id="Shadow_20_" class="st1" cx="153.07" cy="380.16" rx="65.05" ry="37.56"/>
	<path id="Shadow_17_" class="st1" d="M164.02,410.3l111.57,64.42c0.6,0.35,1.57,0.35,2.17,0l58.77-33.93c0.6-0.35,0.6-0.9,0-1.25
		l-111.57-64.42c-0.6-0.35-1.57-0.35-2.17,0l-58.77,33.93C163.42,409.39,163.42,409.95,164.02,410.3z"/>
</g>
<g id="Plants">
	<path id="XMLID_1509_" class="st2" d="M425.26,312.16l-9.53-5.5c0,0-2.33-20.4-0.78-36.2c2.18-22.2,16.52-48.92,33.63-42.64
		c17.11,6.27-7.84,28.89-13.4,47.72C429.63,294.36,425.26,312.16,425.26,312.16z"/>
	<path id="XMLID_1508_" class="st3" d="M425.26,312.16l-9.53-5.5c0,0-2.33-20.4-0.78-36.2c2.18-22.2,16.52-48.92,33.63-42.64
		c17.11,6.27-7.84,28.89-13.4,47.72C429.63,294.36,425.26,312.16,425.26,312.16z"/>
	<path id="XMLID_1506_" class="st4" d="M420.25,309.84c0.01,0,0.01,0,0.02,0c0.32-0.01,0.57-0.28,0.56-0.6
		c-1.67-49.33,22.88-74.15,23.13-74.39c0.23-0.22,0.23-0.59,0.01-0.82c-0.23-0.23-0.59-0.23-0.82-0.01
		c-0.25,0.25-25.17,25.42-23.48,75.25C419.69,309.6,419.94,309.84,420.25,309.84z"/>
	<path id="XMLID_1489_" class="st5" d="M431.25,315.59l-6.78-3.91c0,0-1.15-14,5.71-31.01c5.98-14.81,20.8-27.09,28.26-24.51
		c7.46,2.58,7.27,7.87,3.64,13.42C458.45,275.12,436.33,288.34,431.25,315.59z"/>
	<path id="XMLID_1487_" class="st4" d="M427.68,314.1L427.68,314.1c0.32,0,0.58-0.26,0.58-0.58c-0.13-31.19,29.15-52.27,29.45-52.48
		c0.26-0.18,0.32-0.54,0.14-0.8c-0.18-0.26-0.54-0.32-0.8-0.14c-0.3,0.21-30.07,21.64-29.94,53.43
		C427.1,313.84,427.36,314.1,427.68,314.1z"/>
	<g id="XMLID_2004_">
		<path id="XMLID_2005_" class="st3" d="M79.63,303.34l8.03-4.64c0,0,4.78-19.86,2.88-37.74c-2.68-25.13-19.22-34.59-25.51-32.42
			c-6.29,2.17-8.11,9.48,2.3,24.45C73.47,261.82,81.01,280.21,79.63,303.34z"/>
	</g>
	<g id="XMLID_2000_">
		<path id="XMLID_2001_" class="st4" d="M82.96,293.58c-0.03,0-0.05,0-0.08-0.01c-0.3-0.06-0.5-0.35-0.44-0.65
			c4.4-23.18-3.69-49.23-13.72-60.06c-0.21-0.23-0.2-0.58,0.03-0.79c0.23-0.21,0.58-0.2,0.79,0.03c10.21,11.04,18.46,37.51,14,61.03
			C83.48,293.41,83.23,293.6,82.96,293.58z"/>
	</g>
	<path id="XMLID_1998_" class="st5" d="M58.59,315.49c-1.27,0.65-4.64-2.24-5.58-2.95c-1.61-1.2-2.88-2.85-3.69-4.69
		c-0.94-2.14-1.09-4.38-0.65-6.67c0.23-1.19,0.62-2.34,1.02-3.48c0.39-1.12,0.77-2.25,1.16-3.37c0.38-1.11,0.77-2.25,0.68-3.42
		c-0.18-2.35-2.17-4.1-3.99-5.6c-2.01-1.67-4.08-3.84-3.92-6.65c0.12-2.17,1.35-4.13,2.78-5.77c1.43-1.64,3.11-3.06,4.41-4.8
		c0.94-1.25,1.7-2.74,1.64-4.3c-0.04-0.97-0.39-1.9-0.81-2.78c-0.9-1.88-2.13-3.63-2.71-5.63c-0.59-2-0.37-4.45,1.24-5.78
		c1.32-1.09,3.2-1.16,4.9-0.96c1.57,0.18,3.08,0.97,4.42,1.81c4.34,2.71,6.63,8.13,11.27,10.28c1.79,0.83,3.79,1.09,5.67,1.69
		c1.88,0.6,3.78,1.67,4.57,3.48c1.57,3.56-1.88,7.69-0.84,11.44c0.92,3.32,4.03,4.73,5.66,7.76c0.71,1.33,0.82,2.82,0.62,4.32
		c-0.34,2.53-0.81,4.37-2.17,7.13c-1.12,2.28-4.29,6.6-4.29,6.6S58.79,315.39,58.59,315.49z"/>
	<g id="XMLID_1994_">
		<path id="XMLID_1995_" class="st4" d="M70.89,309.09c-0.01,0-0.02,0-0.02,0c-0.31-0.03-0.54-0.3-0.51-0.61
			c2.03-22.05-7.15-46.96-14.36-54.43c-0.21-0.22-0.21-0.57,0.01-0.79c0.22-0.21,0.57-0.21,0.79,0.01
			c7.36,7.62,16.73,32.95,14.67,55.31C71.44,308.88,71.18,309.1,70.89,309.09z"/>
	</g>
	<g id="XMLID_1992_">
		<path id="XMLID_1993_" class="st4" d="M68.7,281.9c-0.05,0-0.11-0.01-0.16-0.03c-6.99-2.55-15.81-3.39-15.9-3.39
			c-0.31-0.03-0.53-0.3-0.5-0.61c0.03-0.31,0.27-0.54,0.61-0.5c0.09,0.01,9.06,0.85,16.18,3.46c0.29,0.1,0.44,0.43,0.33,0.71
			C69.16,281.77,68.93,281.91,68.7,281.9z"/>
	</g>
</g>
<g id="Speech_Bubble">
	<g id="Speach_Bubble_8_">
		<g>
			<path id="XMLID_1504_" class="st2" d="M269.05,21.42l-72.54,41.89c-0.62,0.36-1.12,1.22-1.12,1.94v30.17
				c0,0.71,0.5,1.58,1.13,1.93l4.01,2.25c0.62,0.35,1.63,0.35,2.24-0.01l72.54-41.89c0.62-0.36,1.12-1.22,1.12-1.94V25.58
				c0-0.71-0.5-1.58-1.13-1.93l-4.01-2.25C270.67,21.06,269.67,21.06,269.05,21.42z"/>
			<path id="XMLID_1502_" class="st2" d="M201.65,98.93V68.77c0-0.71,0.5-1.58,1.12-1.94l72.54-41.89c0.62-0.36,1.12-0.07,1.12,0.65
				v30.17c0,0.71-0.5,1.58-1.12,1.94l-72.54,41.89C202.15,99.94,201.65,99.65,201.65,98.93z"/>
			<path id="XMLID_1501_" class="st6" d="M202.77,99.58c-0.6,0.35-1.68,0.36-2.25,0.01l-4.01-2.25c-0.62-0.35-1.13-1.21-1.13-1.92
				V65.25c0-0.37,0.14-0.78,0.36-1.14l6.23,3.56c-0.21,0.35-0.33,0.74-0.33,1.1v30.16C201.65,99.59,202.11,99.96,202.77,99.58z"/>
			<path id="XMLID_1495_" class="st7" d="M276.41,25.38c-0.09-0.56-0.55-0.77-1.11-0.44l-72.54,41.89
				c-0.31,0.18-0.59,0.49-0.79,0.84l-6.24-3.56c0.2-0.34,0.47-0.63,0.77-0.8l72.54-41.89c0.62-0.36,1.62-0.36,2.24-0.01l4.01,2.25
				C275.87,23.98,276.34,24.71,276.41,25.38z"/>
		</g>
		<g>
			<path id="XMLID_1494_" class="st2" d="M192.32,88.77c-0.7-0.42-5.97-3.38-6.14-3.48c-0.52-0.32-0.7-1.08-0.22-1.6l9.52-9.88
				l6.16,3.5l-9.52,9.88C191.67,87.7,191.85,88.43,192.32,88.77z"/>
			<path id="XMLID_1493_" class="st7" d="M192.32,88.77c-0.7-0.42-5.97-3.38-6.14-3.48c-0.52-0.32-0.7-1.08-0.22-1.6l9.52-9.88
				l6.16,3.5l-9.52,9.88C191.67,87.7,191.85,88.43,192.32,88.77z"/>
			<path id="XMLID_1492_" class="st2" d="M201.65,77.32l-9.52,9.88c-0.64,0.69-0.17,1.64,0.64,1.72l8.88-0.04L201.65,77.32z"/>
		</g>
		<g>
			<path class="st8" d="M213.95,68.07c0.11-0.06,0.2-0.06,0.28,0.02c0.08,0.08,0.12,0.2,0.12,0.36v1.61c0,0.17-0.04,0.34-0.11,0.53
				c-0.07,0.19-0.15,0.35-0.21,0.5l-2.15,4.74c0.44-0.16,0.84-0.23,1.2-0.2c0.36,0.04,0.66,0.17,0.92,0.41
				c0.25,0.24,0.45,0.58,0.59,1.03c0.14,0.45,0.21,1,0.21,1.65c0,0.79-0.1,1.54-0.3,2.27c-0.2,0.73-0.48,1.41-0.84,2.04
				c-0.36,0.63-0.78,1.2-1.27,1.71c-0.49,0.51-1.01,0.93-1.58,1.25c-0.69,0.4-1.28,0.62-1.79,0.66c-0.51,0.04-0.93-0.04-1.27-0.23
				c-0.34-0.2-0.6-0.5-0.77-0.89c-0.18-0.4-0.28-0.83-0.31-1.29c-0.01-0.18,0.03-0.35,0.11-0.51c0.08-0.16,0.18-0.27,0.29-0.34
				l1.16-0.67c0.1-0.06,0.18-0.05,0.24,0.01c0.06,0.06,0.13,0.16,0.2,0.31c0.06,0.15,0.14,0.27,0.24,0.37
				c0.1,0.1,0.23,0.17,0.39,0.21c0.16,0.03,0.37,0.02,0.61-0.05c0.25-0.06,0.54-0.2,0.9-0.4c0.6-0.35,1.08-0.81,1.45-1.39
				c0.37-0.58,0.55-1.21,0.55-1.89c0-0.68-0.18-1.06-0.55-1.14c-0.37-0.08-0.85,0.05-1.45,0.4l-1.22,0.71
				c-0.11,0.06-0.2,0.06-0.28-0.02c-0.08-0.08-0.12-0.2-0.12-0.36v-1.61c0-0.17,0.04-0.34,0.11-0.53c0.07-0.19,0.14-0.35,0.21-0.5
				l2.06-4.52l-4.07,2.35c-0.11,0.06-0.2,0.06-0.28-0.02c-0.08-0.08-0.12-0.2-0.12-0.36v-1.61c0-0.17,0.04-0.33,0.12-0.5
				c0.08-0.17,0.17-0.28,0.28-0.34L213.95,68.07z"/>
			<path class="st8" d="M217.65,66.55c0-0.17,0.04-0.33,0.12-0.5c0.08-0.17,0.17-0.28,0.28-0.34l5.54-3.2
				c0.11-0.06,0.2-0.06,0.28,0.02c0.08,0.08,0.12,0.2,0.12,0.36v1.61c0,0.17-0.04,0.33-0.12,0.5c-0.08,0.17-0.17,0.28-0.28,0.34
				l-4.14,2.39l-0.16,3c0.26-0.32,0.53-0.57,0.79-0.75c0.26-0.18,0.47-0.32,0.64-0.42c0.55-0.32,1.06-0.5,1.53-0.54
				c0.47-0.04,0.88,0.06,1.22,0.3c0.34,0.25,0.61,0.64,0.81,1.18c0.2,0.54,0.29,1.23,0.29,2.07c0,0.97-0.1,1.85-0.3,2.66
				c-0.2,0.8-0.48,1.53-0.83,2.18c-0.35,0.65-0.76,1.21-1.23,1.69c-0.47,0.48-0.97,0.87-1.5,1.17c-0.68,0.39-1.26,0.61-1.75,0.64
				c-0.49,0.04-0.89-0.06-1.21-0.29c-0.32-0.23-0.56-0.57-0.72-1.01c-0.16-0.44-0.25-0.95-0.27-1.53c-0.01-0.18,0.03-0.34,0.11-0.51
				c0.08-0.16,0.18-0.27,0.29-0.34l1.19-0.69c0.1-0.06,0.19-0.06,0.27-0.01c0.08,0.05,0.13,0.15,0.16,0.3
				c0.06,0.32,0.15,0.54,0.28,0.69c0.13,0.15,0.27,0.24,0.44,0.27c0.17,0.03,0.35,0.01,0.56-0.06c0.21-0.07,0.42-0.18,0.65-0.31
				c0.56-0.32,1.01-0.82,1.36-1.49c0.34-0.67,0.51-1.41,0.51-2.23c0-0.68-0.17-1.15-0.51-1.4c-0.34-0.25-0.8-0.23-1.36,0.08
				c-0.29,0.17-0.53,0.34-0.7,0.51c-0.17,0.17-0.31,0.33-0.42,0.48c-0.11,0.15-0.21,0.29-0.29,0.41c-0.09,0.12-0.2,0.22-0.34,0.3
				l-1.36,0.78c-0.11,0.06-0.2,0.06-0.28-0.02c-0.08-0.07-0.12-0.2-0.12-0.36L217.65,66.55z"/>
			<path class="st8" d="M228.52,72.09c0.11-0.06,0.2-0.06,0.28,0.02c0.08,0.08,0.12,0.2,0.12,0.36v2.22c0,0.17-0.04,0.33-0.12,0.5
				c-0.08,0.17-0.17,0.28-0.28,0.34l-1.37,0.79c-0.11,0.06-0.2,0.05-0.28-0.02c-0.08-0.08-0.12-0.2-0.12-0.36v-2.22
				c0-0.17,0.04-0.33,0.12-0.5c0.08-0.17,0.17-0.28,0.28-0.34L228.52,72.09z"/>
			<path class="st8" d="M233.1,69.44c0.11-0.06,0.2-0.06,0.28,0.02c0.08,0.08,0.12,0.2,0.12,0.36v2.22c0,0.17-0.04,0.33-0.12,0.5
				c-0.08,0.17-0.17,0.28-0.28,0.34l-1.37,0.79c-0.11,0.06-0.2,0.06-0.28-0.02c-0.08-0.08-0.12-0.2-0.12-0.36v-2.22
				c0-0.17,0.04-0.33,0.12-0.5c0.08-0.17,0.17-0.28,0.28-0.34L233.1,69.44z"/>
			<path class="st8" d="M237.68,66.8c0.11-0.06,0.2-0.05,0.28,0.02c0.08,0.08,0.12,0.2,0.12,0.36v2.22c0,0.17-0.04,0.33-0.12,0.5
				c-0.08,0.17-0.17,0.28-0.28,0.34l-1.37,0.79c-0.11,0.06-0.2,0.06-0.28-0.02c-0.08-0.08-0.12-0.2-0.12-0.36v-2.22
				c0-0.17,0.04-0.33,0.12-0.5c0.08-0.17,0.17-0.28,0.28-0.34L237.68,66.8z"/>
			<path class="st8" d="M247.5,48.7c0.11-0.06,0.2-0.06,0.28,0.02c0.08,0.08,0.12,0.2,0.12,0.36v1.61c0,0.17-0.04,0.34-0.11,0.53
				c-0.07,0.19-0.15,0.35-0.21,0.5l-2.15,4.74c0.44-0.16,0.84-0.23,1.2-0.19c0.36,0.04,0.66,0.17,0.92,0.41
				c0.25,0.24,0.45,0.58,0.59,1.03c0.14,0.45,0.21,1,0.21,1.65c0,0.79-0.1,1.54-0.3,2.27c-0.2,0.73-0.48,1.41-0.84,2.04
				c-0.36,0.63-0.78,1.2-1.27,1.71c-0.49,0.51-1.01,0.92-1.58,1.25c-0.69,0.4-1.28,0.62-1.79,0.66c-0.51,0.04-0.93-0.03-1.27-0.23
				c-0.34-0.2-0.6-0.5-0.77-0.89c-0.18-0.4-0.28-0.83-0.31-1.3c-0.01-0.18,0.03-0.34,0.11-0.51c0.08-0.16,0.18-0.27,0.29-0.33
				l1.16-0.67c0.1-0.06,0.18-0.05,0.24,0.01c0.06,0.06,0.13,0.16,0.2,0.3c0.06,0.15,0.14,0.27,0.23,0.37
				c0.1,0.1,0.23,0.17,0.39,0.21c0.16,0.04,0.37,0.02,0.61-0.05c0.25-0.07,0.54-0.2,0.9-0.41c0.6-0.35,1.08-0.81,1.45-1.39
				c0.37-0.58,0.55-1.21,0.55-1.89c0-0.68-0.18-1.06-0.55-1.14c-0.37-0.08-0.85,0.05-1.45,0.4l-1.22,0.71
				c-0.11,0.06-0.2,0.06-0.28-0.02c-0.08-0.08-0.12-0.2-0.12-0.36v-1.61c0-0.17,0.04-0.34,0.11-0.53c0.07-0.19,0.14-0.35,0.21-0.5
				l2.06-4.52l-4.07,2.35c-0.11,0.06-0.2,0.06-0.28-0.02c-0.08-0.08-0.12-0.2-0.12-0.36v-1.61c0-0.17,0.04-0.33,0.12-0.5
				c0.08-0.17,0.17-0.28,0.28-0.34L247.5,48.7z"/>
			<path class="st8" d="M250.39,57.53c0.01-0.88,0.11-1.68,0.31-2.4c0.2-0.72,0.42-1.43,0.68-2.14l2.8-7.7
				c0.04-0.11,0.09-0.24,0.15-0.38c0.06-0.14,0.16-0.25,0.3-0.33l1.33-0.77c0.11-0.06,0.2-0.06,0.28,0.02
				c0.08,0.08,0.12,0.2,0.12,0.36c0,0.08-0.01,0.14-0.02,0.19c-0.02,0.05-0.03,0.1-0.05,0.14l-1.83,5.09
				c0.58-0.32,1.11-0.48,1.6-0.49c0.49-0.01,0.9,0.13,1.25,0.41c0.35,0.28,0.62,0.71,0.81,1.28c0.19,0.57,0.29,1.26,0.29,2.08
				c0,0.83-0.1,1.65-0.29,2.45c-0.2,0.8-0.47,1.55-0.83,2.25c-0.35,0.7-0.78,1.32-1.27,1.88c-0.49,0.56-1.03,1-1.62,1.34
				c-0.59,0.34-1.13,0.52-1.62,0.53c-0.49,0.01-0.91-0.13-1.27-0.41c-0.35-0.29-0.63-0.72-0.82-1.29
				C250.49,59.07,250.39,58.36,250.39,57.53z M256.4,54.06c0-0.77-0.17-1.32-0.52-1.64c-0.35-0.32-0.84-0.29-1.48,0.07
				c-0.64,0.37-1.13,0.91-1.48,1.64c-0.35,0.72-0.52,1.47-0.52,2.24c0,0.77,0.17,1.32,0.52,1.66c0.35,0.33,0.84,0.32,1.48-0.05
				c0.64-0.37,1.13-0.92,1.48-1.66C256.23,55.59,256.4,54.83,256.4,54.06z"/>
			<path class="st8" d="M262.22,52.63c0.11-0.06,0.2-0.06,0.28,0.02c0.08,0.08,0.12,0.2,0.12,0.36v2.22c0,0.17-0.04,0.33-0.12,0.5
				c-0.08,0.17-0.17,0.28-0.28,0.34l-1.37,0.79c-0.11,0.06-0.2,0.05-0.28-0.02c-0.08-0.08-0.12-0.2-0.12-0.36v-2.22
				c0-0.17,0.04-0.33,0.12-0.5c0.08-0.17,0.17-0.28,0.28-0.34L262.22,52.63z"/>
			<path class="st8" d="M266.8,49.99c0.11-0.06,0.2-0.06,0.28,0.02c0.08,0.08,0.12,0.2,0.12,0.36v2.22c0,0.17-0.04,0.33-0.12,0.5
				c-0.08,0.17-0.17,0.28-0.28,0.34l-1.37,0.79c-0.11,0.06-0.2,0.06-0.28-0.02c-0.08-0.08-0.12-0.2-0.12-0.36v-2.22
				c0-0.17,0.04-0.33,0.12-0.5c0.08-0.17,0.17-0.28,0.28-0.34L266.8,49.99z"/>
			<path class="st8" d="M271.38,47.34c0.11-0.06,0.2-0.05,0.28,0.02c0.08,0.08,0.12,0.2,0.12,0.36v2.22c0,0.17-0.04,0.33-0.12,0.5
				c-0.08,0.17-0.17,0.28-0.28,0.34l-1.37,0.79c-0.11,0.06-0.2,0.06-0.28-0.02c-0.08-0.08-0.12-0.2-0.12-0.36v-2.22
				c0-0.17,0.04-0.33,0.12-0.5c0.08-0.17,0.17-0.28,0.28-0.34L271.38,47.34z"/>
		</g>
	</g>
</g>
<g id="Chair">
	<g id="XMLID_14889_">
		<g id="XMLID_14914_">
			<path id="XMLID_14915_" class="st9" d="M331.38,373.17c0.82,0,1.48-0.66,1.48-1.48v-95.4c0-0.82-0.66-1.48-1.48-1.48
				c-0.82,0-1.48,0.66-1.48,1.48v95.4C329.9,372.51,330.56,373.17,331.38,373.17z"/>
		</g>
		<g id="XMLID_14912_">
			<path id="XMLID_14913_" class="st9" d="M272.36,338.45c0.59,0,1.15-0.36,1.38-0.94l29.25-74.04c0.3-0.76-0.07-1.62-0.83-1.92
				c-0.76-0.3-1.62,0.07-1.92,0.83l-29.25,74.04c-0.3,0.76,0.07,1.62,0.83,1.92C271.99,338.42,272.18,338.45,272.36,338.45z"/>
		</g>
		<g id="XMLID_14910_">
			<path id="XMLID_14911_" class="st9" d="M275.88,329.56c0.39,0,0.79-0.16,1.08-0.47l54.43-57.6l54.33,57.36
				c0.56,0.6,1.5,0.62,2.1,0.06c0.6-0.56,0.62-1.5,0.06-2.1l-55.41-58.5c-0.28-0.3-0.67-0.46-1.08-0.46h0
				c-0.41,0-0.8,0.17-1.08,0.47l-55.51,58.74c-0.56,0.6-0.54,1.53,0.06,2.1C275.14,329.42,275.51,329.56,275.88,329.56z"/>
		</g>
		<g id="XMLID_14908_">
			<path id="XMLID_14909_" class="st9" d="M390.41,338.45c0.18,0,0.37-0.03,0.54-0.1c0.76-0.3,1.14-1.16,0.83-1.92l-29.25-74.04
				c-0.3-0.76-1.16-1.14-1.92-0.83c-0.76,0.3-1.14,1.16-0.83,1.92l29.25,74.04C389.26,338.1,389.81,338.45,390.41,338.45z"/>
		</g>
		<g id="XMLID_14902_">
			<path id="XMLID_14907_" class="st2" d="M274.38,327.27l-3.87,10.21c-0.02,0.09-0.03,0.17-0.03,0.26c-0.01,0.06-0.01,0.12,0,0.19
				c0.03,0.21,0.3,0.48,0.58,0.64c0.65,0.38,1.7,0.38,2.35,0c0.24-0.14,0.39-0.31,0.46-0.48c0-0.01,0-0.01,0.01-0.02l0.03-0.14
				l3.59-9.57L274.38,327.27z"/>
		</g>
		<g id="XMLID_14892_">
			<path id="XMLID_14896_" class="st2" d="M388.39,327.27l3.87,10.21c0.02,0.09,0.03,0.17,0.03,0.26c0.01,0.06,0.01,0.12,0,0.19
				c-0.03,0.21-0.3,0.48-0.58,0.64c-0.65,0.38-1.7,0.38-2.35,0c-0.24-0.14-0.39-0.31-0.46-0.48c0-0.01,0-0.01-0.01-0.02l-0.03-0.14
				l-3.59-9.57L388.39,327.27z"/>
		</g>
		<g id="XMLID_14890_">
			<path id="XMLID_14891_" class="st2" d="M329.67,364.3l0,8.44c0,0.25,0.17,0.51,0.5,0.7c0.67,0.39,1.75,0.39,2.42,0
				c0.33-0.19,0.5-0.45,0.5-0.7v-8.44C331.95,363.73,330.81,363.73,329.67,364.3z"/>
		</g>
	</g>
	<path id="XMLID_14888_" class="st2" d="M265.04,262.47c0.01-2.66,2.33-5.49,7.25-8.68c9.1-5.9,35.57-20.68,48.29-27.73
		c0.03-0.1,0.11-0.1,0.11-0.1c9.79-5.94,12.77-31.31,19.55-52.82c2.31-7.33,5.14-11.48,8.49-13.43c0.8-0.46,3.73-2.08,4.39-2.47
		c6.65-3.98,15.38,0.8,26.25,6.75c10.02,5.48,17.84,12.5,19.41,31.12c0.96,11.34,0.05,33-2.26,49.42c0,0,0.01-0.01,0.01-0.01
		c-3.33,27.43-7.43,27.48-13.37,32.07c-10.22,7.9-33.25,19-42.96,22.82c-17.6,6.92-31.99-3.75-42.71-9.05
		c-10.72-5.29-23.9-13.55-28.41-16.83c-2.68-1.95-4.07-3.92-4.04-6C265.06,266.7,265.04,263.33,265.04,262.47z"/>
	<path id="XMLID_1466_" class="st6" d="M265.04,262.47c0.01-2.66,2.33-5.49,7.25-8.68c9.1-5.9,35.57-20.68,48.29-27.73
		c0.03-0.1,0.11-0.1,0.11-0.1c9.79-5.94,12.77-31.31,19.55-52.82c2.31-7.33,5.14-11.48,8.49-13.43c0.8-0.46,3.73-2.08,4.39-2.47
		c6.65-3.98,15.38,0.8,26.25,6.75c10.02,5.48,17.84,12.5,19.41,31.12c0.96,11.34,0.05,33-2.26,49.42c0,0,0.01-0.01,0.01-0.01
		c-3.33,27.43-7.43,27.48-13.37,32.07c-10.22,7.9-33.25,19-42.96,22.82c-17.6,6.92-31.99-3.75-42.71-9.05
		c-10.72-5.29-23.9-13.55-28.41-16.83c-2.68-1.95-4.07-3.92-4.04-6C265.06,266.7,265.04,263.33,265.04,262.47z"/>
	<g id="XMLID_14886_">
		<path id="XMLID_14887_" class="st2" d="M297.5,285.25c-10.72-5.3-23.9-13.55-28.41-16.83c-6.1-4.43-5.54-8.96,3.2-14.63
			c12.15-7.88,55.28-31.59,55.28-31.59s62.59,36.94,59.9,43.76c-2.69,6.82-35.06,23.54-47.27,28.34
			C322.61,301.22,308.22,290.55,297.5,285.25z"/>
	</g>
	<path id="XMLID_14885_" class="st2" d="M349.13,159.49c6.59-3.46,15.15,1.24,25.74,7.05c6.78,3.72,12.57,8.13,16.08,16.37
		l4.47-2.59c-3.51-8.21-9.28-12.62-16.05-16.33c-10.88-5.96-19.6-10.73-26.26-6.75C352.54,157.58,350.23,158.87,349.13,159.49z"/>
	<path id="XMLID_1465_" class="st10" d="M349.13,159.49c6.59-3.46,15.15,1.24,25.74,7.05c6.78,3.72,12.57,8.13,16.08,16.37
		l4.47-2.59c-3.51-8.21-9.28-12.62-16.05-16.33c-10.88-5.96-19.6-10.73-26.26-6.75C352.54,157.58,350.23,158.87,349.13,159.49z"/>
	<g id="XMLID_14883_">
		<path id="XMLID_14884_" class="st2" d="M374.87,166.54c-16.27-8.91-27.75-15.23-34.63,6.6c-6.78,21.51-9.76,46.87-19.55,52.82
			c0,0,6.39,2.1,29.16,13.28c9.35,4.59,15.49,9.22,24.25,14.72c12.88,8.1,11.9,14.12,11.9,14.12c6.4-5.3,9.86-51.81,8.29-70.43
			C392.71,179.04,384.89,172.02,374.87,166.54z"/>
	</g>
	<g id="XMLID_1129_" class="st11">
		<path id="XMLID_1464_" class="st6" d="M374.87,166.54c-16.27-8.91-27.75-15.23-34.63,6.6c-6.78,21.51-9.76,46.87-19.55,52.82
			c0,0,6.39,2.1,29.16,13.28c9.35,4.59,15.49,9.22,24.25,14.72c12.88,8.1,11.9,14.12,11.9,14.12c6.4-5.3,9.86-51.81,8.29-70.43
			C392.71,179.04,384.89,172.02,374.87,166.54z"/>
	</g>
</g>
<g id="Character">
	<g id="XMLID_4622_">
		<path id="XMLID_4624_" class="st12" d="M158.03,106.53c8.91,0.42,14.66,1.99,19.32,7.48c4.55,5.36,28.12,38.84,28.12,38.84
			s-4.12,11.56-13.14,10.57L174.62,142L158.03,106.53z"/>
		<path class="st13" d="M158.74,106.34c0,0,9.49,0.15,13.81,3.18c4.33,3.03,5.07,3.67,11.43,12.51s12.1,16.77,12.1,16.77
			s-4.51,8.41-15.41,11.73l-18.76-22.61L158.74,106.34z"/>
	</g>
	<polygon id="XMLID_1117_" class="st12" points="112.95,372.27 127.74,372.27 127.44,349.62 112.95,351.89 	"/>
	<polygon id="XMLID_1988_" class="st12" points="163,357.09 177.02,357.57 176.47,333.46 160.97,332.55 	"/>
	<g>
		<path id="XMLID_1987_" class="st14" d="M143.27,396.07c0.43,0.4,0.3,3.15-0.17,3.88c-0.5,0.79-5.4,3.27-10.65,3.64
			c-5.01,0.36-9.48-0.32-12.42-2.18c-2.94-1.87-4.37-3.93-4.64-6.78c-0.28-2.85,0.04-5.61-1.32-7.8c-1.26-2.03-3.26-4.31-3.69-5.41
			c-0.95-2.39-0.03-5.81-0.03-5.81L143.27,396.07z"/>
		<path id="XMLID_1986_" class="st9" d="M129.56,371.15c0.04,1.11,0.23,2.12,0.58,3.18c0.73,2.21,1.83,4.3,3.07,6.28
			c0.64,1.02,1.31,2.02,2.09,2.95c1.52,1.8,3.4,3.28,5,5.01c1.6,1.73,2.97,3.83,3.09,6.15c0.21,3.93-6.05,5.26-9.33,5.85
			c-3.51,0.62-7.25,0.44-10.67-0.54c-3.81-1.08-6.55-4.03-7.19-7.83c-0.18-1.09-0.11-2.21-0.24-3.3c-0.29-2.5-1.59-4.79-3.06-6.87
			c-0.85-1.21-1.77-2.39-2.34-3.74c-1.02-2.43-0.2-5.17,0.45-7.59c0.57-2.09,1.21-4.46,1.94-4.26c0.01,1.08,0,1.2,0.77,1.93
			c0.98,0.93,1.03,2.33,2.07,3.15c-0.49-1.27-0.52-1.82-0.73-2.79c-0.06-0.29,0.02-0.89,0.22-1.11c0.28-0.3,0.75-0.49,1.21-0.64
			c1.55-0.52,3.15-0.89,4.77-1.09c1.48-0.18,5.19-0.36,6.66-0.03c0.45,0.1,0.89,0.32,1.17,0.68c0.29,0.38,0.35,0.71,0.42,1.34
			C129.58,368.49,129.53,370.11,129.56,371.15z"/>
		<path id="XMLID_1984_" class="st15" d="M133.74,381.43c-1.46-1.1-6.74-1.11-8.53-0.92c-2.24,0.24-4.06,1.03-5.1,1.79
			c-0.46,0.34-1.1,0.28-1.5-0.12l0,0c-0.48-0.48-0.44-1.26,0.11-1.67c1.09-0.8,3.07-1.94,5.73-2.12c4.41-0.31,7.71,0.45,7.71,0.45
			S134.17,380.13,133.74,381.43z"/>
		<path id="XMLID_1983_" class="st15" d="M137.1,385.46c-1.84-1.09-7.45-0.93-9.24-0.74c-2.24,0.24-3.92,1.12-4.96,1.88
			c-0.46,0.34-1.1,0.28-1.5-0.12l0,0c-0.48-0.48-0.44-1.26,0.11-1.67c1.09-0.8,5.2-2.11,7.86-2.29c4.41-0.31,5.56,0.59,5.56,0.59
			S136.8,383.83,137.1,385.46z"/>
		<path id="XMLID_1982_" class="st15" d="M122.7,374.17c3.05-0.31,6.34,0.03,7.55,0.47c0.78,0.44,1.29,1.66,0.79,1.97
			c-0.98-0.55-4.75-0.77-6.92-0.68c-1.45,0.06-3.28,0.65-4.77,1.31c-0.38,0.17-0.82,0.4-1.21,0.62c-0.53,0.29-1.2,0.08-1.45-0.45
			l0,0c-0.21-0.45-0.06-1,0.38-1.26C118.13,375.5,120.23,374.42,122.7,374.17z"/>
	</g>
	<g>
		<path id="XMLID_1981_" class="st14" d="M204.54,373.4c0.41,0.86,0.29,2.47-0.2,3.5c-0.49,1.02-5.83,4.04-13.04,3.55
			c-7.21-0.49-12.16-3.39-14.91-5.21c-2.75-1.82-5.61-2.16-9.18-2.36c-3.57-0.2-8.26-1.98-9.04-3.65c-0.78-1.67,0.12-4.55,0.12-4.55
			L204.54,373.4z"/>
		<path id="XMLID_1980_" class="st9" d="M175.45,350.9c0.19-0.04,0.38-0.08,0.57-0.12c0.31-0.06,0.64-0.13,0.95-0.05
			c0.35,0.08,0.64,0.33,0.89,0.6c0.78,0.84,1.24,1.92,1.84,2.89c1.51,2.47,4.68,4.51,8.15,6.37c2.36,1.27,4.66,2.25,7.09,3.34
			c2.48,1.12,5.77,1.8,7.71,3.11c2.83,1.91,3.19,6.7-0.03,8.59c-2.78,1.63-10.1,3.4-17.77,1.23c-4.18-1.18-8.82-5.65-14.31-6.08
			c-3.49-0.27-10.09-1.25-12.33-3.9c-0.83-1.17,0.28-4.9,1.19-8.12c0.99-3.51,1.94-8.99,3.1-8.68c0.05,0.69,0.15,0.84,0.61,1.31
			c0.43,0.44,1.01,0.73,1.48,1.13c0.86,0.74,1.39,1.78,1.93,2.78c0.23,0.43,0.51,0.89,0.99,1.07c0.59,0.22,1.03-0.15,1.54-0.39
			c0.65-0.3,1.4-0.35,2.08-0.15c-0.07-0.69-0.19-1.38-0.37-2.06c-0.06-0.22-0.12-0.45-0.05-0.66c0.07-0.22,0.26-0.37,0.45-0.5
			C172.51,351.66,173.9,351.23,175.45,350.9z"/>
		<path id="XMLID_1968_" class="st15" d="M184.59,358.7c0,0-0.5-1.34-2.58-1.72c-1.59-0.3-4.39,0.87-6.13,2.31
			c-0.71,0.59-0.62,1.7,0.19,2.15l0,0c0.48,0.27,1.07,0.2,1.49-0.16C178.69,360.27,181.26,358.47,184.59,358.7z"/>
		<path id="XMLID_1965_" class="st15" d="M189.51,361.45c0,0-1.03-1.6-3.05-1.57c0,0-4.15,0.12-6.71,2.51
			c-0.65,0.61-0.61,1.65,0.18,2.08v0c0.47,0.26,1.03,0.19,1.43-0.17C182.51,363.27,184.82,361.1,189.51,361.45z"/>
		<path id="XMLID_1911_" class="st15" d="M194.94,363.93c0,0-1.14-1.45-3.17-1.42c0,0-3.86,0.14-6.43,2.54
			c-0.65,0.61-0.61,1.65,0.18,2.08l0,0c0.47,0.26,1.04,0.19,1.43-0.17C188.11,365.93,190.26,363.58,194.94,363.93z"/>
	</g>
	<path id="XMLID_1116_" class="st2" d="M115.2,191.46c-0.91,27.52-0.97,83.82-0.97,83.82c-0.29,3.42-0.59,9.51-0.84,21.84
		c-0.37,17.88-0.43,63.83-0.43,63.83s7.74,2.19,15.56-1.07c0,0,10.91-62.06,13.14-79.76c1.95-15.45,5.25-57.42,5.25-57.42
		l6.75,50.43c0,0-1.21,13.15-0.46,23.73c0.58,8.19,8.91,50.29,8.91,50.29s6.21,2.88,14.73,0c0,0,0.13-66.51,0.27-74.03
		c0.16-8.56-0.77-96.41-0.77-96.41L115.2,191.46z"/>
	<path id="XMLID_1124_" class="st6" d="M115.2,191.46c-0.91,27.52-0.97,83.82-0.97,83.82c-0.29,3.42-0.59,9.51-0.84,21.84
		c-0.37,17.88-0.43,63.83-0.43,63.83s7.74,2.19,15.56-1.07c0,0,10.91-62.06,13.14-79.76c1.95-15.45,5.25-57.42,5.25-57.42
		l6.75,50.43c0,0-1.21,13.15-0.46,23.73c0.58,8.19,8.91,50.29,8.91,50.29s6.21,2.88,14.73,0c0,0,0.13-66.51,0.27-74.03
		c0.16-8.56-0.77-96.41-0.77-96.41L115.2,191.46z"/>
	<path id="XMLID_2225_" class="st6" d="M146.91,222.7c0,0,9.96-2.81,17.35-9.95c0,0-3.35,6.27-13.3,12.1l2.13,43.96L146.91,222.7z"
		/>
	<path id="XMLID_2139_" class="st9" d="M139.64,105.36c-5.58,0.54-13.38,0.6-18.92,1.17c-3.84,1.58-11.22,8.01-10.67,12.6
		c2.05,17.15,5.63,45.47,5.63,45.47l-1.1,29.57c7.67,7.65,43.89,10.64,62.38-1.61c0,0-0.6-53.51-1.87-62.54
		c-2.28-16.22-4.28-22.24-12.65-23.68C154.08,104.9,139.64,105.36,139.64,105.36z"/>
	
		<ellipse id="XMLID_2138_" transform="matrix(0.3598 -0.933 0.933 0.3598 38.7686 186.8496)" class="st14" cx="155.53" cy="65.18" rx="17.28" ry="17.28"/>
	<path id="XMLID_2136_" class="st14" d="M125.55,77.2c0,0,2.69,13.18,3.79,15.35c1.1,2.17,3.42,2.81,3.42,2.81l-0.11-9.26
		L125.55,77.2z"/>
	<path id="XMLID_2135_" class="st14" d="M129.23,58.38c0,0-3.01-0.54-5.38,1.84c-2.33,2.34-1.1,9.73,1.7,16.98l5.27,0.65
		L129.23,58.38z"/>
	<path id="XMLID_2134_" class="st12" d="M132.4,77.87c-1.06,0.62-2.55-1.42-3.85-2.8c-1.29-1.38-5.54-3.28-7.7,1.18
		c-2.2,4.54,1.78,10.61,5.13,11.69c5.76,1.86,6.66-1.83,6.66-1.83l0.24,21.48l0,0c7.1,9.27,27.05,8.67,18.82-1.02l0.04-6.34
		c0,0,5.23,0.84,7.79,0.47c4.26-0.62,6.96-3.95,8.29-8.54c2.13-7.37,2.97-13.33,1.34-27.87c-1.79-15.94-20.31-16.27-30.36-10.06
		C128.74,60.43,132.4,77.87,132.4,77.87z"/>
	<path id="XMLID_2133_" class="st14" d="M132.39,79.65c-0.53,0.01-2.53-3.37-3.83-4.58c-1.81-1.68,0.67-16.69,0.67-16.69
		s-2.22-4.27,1.33-8.11c2.52-2.73,6.04-6.06,17.37-4.62c8.08,1.03,16.85,3.63,23.99,0.2c1.03,4.43,0.12,9.36-4.33,12.82
		c0,0-2.59,1.64-9.36,2.4c-6.78,0.76-17.31-0.31-18.75-0.52c-1.96-0.29-2.4,1.61-3.5,6.8C135.01,71.91,134.18,79.63,132.39,79.65z"
		/>
	<path id="XMLID_2132_" class="st14" d="M129.23,59.55l-6.37-3.49c0.92-1.82,3.1-2.52,4.86-1.56
		C129.48,55.47,130.16,57.73,129.23,59.55z"/>
	<path id="XMLID_1115_" class="st16" d="M151.75,100.22c0,0-9.47-1.99-12.77-3.79c-2.21-1.2-4.02-3.26-4.54-4.58
		c0,0,0.6,2.82,2.56,5.37c2.4,3.12,14.73,5.51,14.73,5.51L151.75,100.22z"/>
	<g id="XMLID_2123_">
		<path id="XMLID_2129_" class="st14" d="M153.41,77.22c-0.01,1.09-0.87,1.97-1.92,1.95c-1.05-0.01-1.89-0.91-1.88-2
			c0.01-1.09,0.87-1.97,1.92-1.95C152.58,75.24,153.42,76.13,153.41,77.22z"/>
		<path id="XMLID_1114_" class="st14" d="M152.26,68.38l-3.97,2.42c-0.65-1.14-0.29-2.61,0.81-3.28
			C150.2,66.85,151.61,67.24,152.26,68.38z"/>
		<path id="XMLID_2126_" class="st14" d="M168.59,72.94L165,69.93c0.8-1.03,2.25-1.19,3.24-0.36
			C169.24,70.4,169.39,71.91,168.59,72.94z"/>
		<path id="XMLID_2125_" class="st14" d="M167.05,77.22c-0.01,1.05-0.83,1.88-1.84,1.87c-1.01-0.01-1.81-0.87-1.81-1.91
			c0.01-1.05,0.83-1.88,1.84-1.87C166.26,75.32,167.06,76.18,167.05,77.22z"/>
		<polygon id="XMLID_1113_" class="st16" points="158.34,74.76 157.63,86.19 163.8,84.86 		"/>
		<path class="st16" d="M154.08,91.21c0,1.01-0.82,1.82-1.82,1.82c-1.01,0-1.82-0.82-1.82-1.82c0-1.01,0.82-1.82,1.82-1.82
			C153.27,89.39,154.08,90.2,154.08,91.21z"/>
	</g>
	<g>
		<path class="st12" d="M98.39,85.19c4.25-4.57,7.18-8.05,11.03-11.95c2.18-2.21,3.6-3.81,5.72-6.09c1.46-1.57,2.36-2.93,3.83-3.31
			c1.65-0.43,3.31-1.44,4.45-2.41c0.81-0.69,1.51-1.51,2.23-2.29c2.43-2.64,5.24-4.92,8.31-6.76c3.23-1.94,6.74-3.3,10.04-5.12
			c1.97-1.09,4.16-3.01,2.14-5.23c-0.62-0.69-1.47-1.13-2.35-1.42c-5.34-1.74-10.32-0.31-15.84,0.47c-2.27,0.32-4.51,0.83-6.69,1.52
			c-1.11,0.35-2.21,0.74-3.17,1.39c-1.49,1.02-2.48,2.6-3.53,4.06c-2.83,3.94-7.61,7.63-11.43,10.52
			c-4.48,3.39-8.86,7.05-13.44,10.26c-4.65,3.26-9.22,6.66-13.49,10.4c-3.54,3.1-3.17,5.15-2.82,6.12c2.02,5.59,4.71,7.8,7.81,11.46
			c6.48,7.64,34.62,36.39,34.62,36.39l4.38-8.07c4.57-8.43,2.67-18.9-4.56-25.2C109.73,94.81,103.36,89.26,98.39,85.19z"/>
		<path id="XMLID_1119_" class="st13" d="M123.99,105.97c-8.05-6.24-22.14-18.28-22.14-18.28s-0.55,14.15-10.78,21.07
			c0,0,18.71,20.01,23.61,24.81c4.57-1.04,8.47-4.68,9.78-11.74C126.68,109.88,123.99,105.97,123.99,105.97z"/>
		<path class="st16" d="M98.39,85.19c0,0-4.03,4.34-10.23,5.54c0,0,4.63,1.38,12.09-4L98.39,85.19z"/>
	</g>
	<g id="Paper">
		<path class="st0" d="M218.27,385.61c-1.95-1.13-3.7-1.35-4.95-0.63c-1.4,0.81-2.21,2.83-2.21,5.53v19.55
			c0,5.8-2.05,10.21-5.77,12.45l22.08-12.73v-7.54C227.42,396.09,223.23,388.47,218.27,385.61z"/>
		<path class="st0" d="M252.79,424.3c-1.42-0.82-2.68-1-3.55-0.5c-1,0.57-1.57,2.06-1.57,4.08v12.83c0,3.49-1.3,6.24-3.57,7.55
			l15.82-9.12v-1.88C259.92,432.47,256.66,426.53,252.79,424.3z"/>
		<path class="st6" d="M218.27,385.61c-1.95-1.13-3.7-1.35-4.95-0.63c-1.4,0.81-2.21,2.83-2.21,5.53v19.55
			c0,5.8-2.05,10.21-5.77,12.45l22.08-12.73v-7.54C227.42,396.09,223.23,388.47,218.27,385.61z"/>
		<path class="st6" d="M252.79,424.3c-1.42-0.82-2.68-1-3.55-0.5c-1,0.57-1.57,2.06-1.57,4.08v12.83c0,3.49-1.3,6.24-3.57,7.55
			l15.82-9.12v-1.88C259.92,432.47,256.66,426.53,252.79,424.3z"/>
		<path class="st0" d="M330.98,421.4l-13.29,7.67l-1.73,1l-35.79,20.64v9.38c0,3.18-1.15,5.64-3.25,6.92l52.68-30.38
			c2.18-1.26,3.38-3.75,3.38-7v-9.38L330.98,421.4z"/>
		<polygon class="st8" points="330.98,420.25 317.18,428.21 315.45,429.21 278.17,450.71 280.17,450.71 315.96,430.07 
			317.69,429.07 330.98,421.4 332.98,420.25 		"/>
		<path class="st0" d="M160.37,190.4v20.64c0,4.14-2.73,5.92-6.1,3.98c-3.36-1.94-6.09-6.67-6.09-10.55v-7.04L160.37,190.4z"/>
		<path class="st17" d="M165.46,172.19c-0.9-0.52-1.69-0.65-2.17-0.38c-0.57,0.33-0.92,1.34-0.92,2.63v14.81v21.79
			c0,2.72-1.02,4.9-2.79,6.01l10.97-6.33v-26.19v-1.16v-1.89C170.55,178.04,168.22,173.78,165.46,172.19z"/>
		<polygon class="st8" points="160.37,189.25 160.37,190.4 148.18,197.43 146.18,197.43 		"/>
		<path class="st8" d="M314.73,419.63V406.8c0-5.52-3.64-12.1-8.13-14.69c-2.09-1.21-4-1.34-5.44-0.56l-0.31,0.18l-18.53,10.69
			l-1.87,1.07l-31.99,18.46c1.43-0.71,3.29-0.56,5.33,0.62c4.49,2.59,8.13,9.17,8.13,14.69v0.72v12.11c0,5.53,3.64,12.1,8.12,14.7
			c4.49,2.59,8.13,0.49,8.13-4.7c0-5.18,0-9.38,0-9.38l37.28-21.5l1.73-1C315.67,425.52,314.73,422.44,314.73,419.63z"/>
		<path class="st15" d="M282.23,400.87v-29.09c0-6.91-4.54-15.13-10.15-18.37c-2.61-1.5-4.99-1.66-6.79-0.71l-0.46,0.27
			l-35.35,20.38l-1.7,0.99l-15.19,8.76c1.79-0.89,4.12-0.7,6.68,0.77c5.61,3.24,10.15,11.46,10.15,18.37v6.38v22.71
			c0,5.53,3.64,12.1,8.13,14.69c4.48,2.59,8.12,0.22,8.12-5.31v-12.83c0-2.93,1.03-4.98,2.66-5.86l0.13-0.07l31.99-18.46l1.87-1.07
			C282.26,401.9,282.23,401.38,282.23,400.87z"/>
		<path class="st8" d="M225.36,358.04V151.02c0-4.14-2.73-9.08-6.09-11.02c-1.57-0.9-3-1-4.08-0.42l-0.24,0.14L162.45,170
			c1.07-0.54,2.47-0.42,4.01,0.46c3.36,1.94,6.09,6.88,6.09,11.02v0.74v1.15v26.2V388.5c0,11.05,7.76,24.48,17.32,30l1.92,1.11
			c9.57,5.52,17.32,1.24,17.32-9.55c0-10.8,0-19.55,0-19.55c0-3.52,1.18-6.02,3.09-7.19l0.39-0.22l15.19-8.76l1.7-0.99
			C226.91,368.38,225.36,362.97,225.36,358.04z"/>
		<path class="st9" d="M280.17,450.71v9.38c0,3.18-1.15,5.64-3.25,6.92l-0.24,0.14c-0.92,0.5-1.93,0.75-3.01,0.75
			c-1.46,0-3.03-0.46-4.63-1.38c-5.11-2.96-9.12-10.17-9.12-16.43v-12.83c0-4.79-3.26-10.73-7.13-12.96c-1.42-0.82-2.68-1-3.55-0.5
			c-1,0.57-1.57,2.06-1.57,4.08v12.83c0,3.49-1.3,6.24-3.57,7.55c-2.15,1.24-4.84,1.06-7.55-0.51c-5.12-2.95-9.13-10.16-9.13-16.42
			v-29.09c0-6.15-4.19-13.77-9.15-16.63c-1.95-1.13-3.7-1.35-4.95-0.63c-1.4,0.81-2.21,2.83-2.21,5.53v19.55
			c0,5.8-2.05,10.21-5.77,12.45l-0.31,0.18l-0.02,0.01c-3.9,2.17-8.95,1.69-14.22-1.36l-1.92-1.11
			c-10.1-5.83-18.32-20.07-18.32-31.73V181.48c0-3.44-2.33-7.7-5.09-9.29c-0.9-0.52-1.69-0.65-2.17-0.38
			c-0.57,0.33-0.92,1.34-0.92,2.63v36.6c0,2.72-1.02,4.9-2.79,6.01l-0.3,0.17c-1.75,0.93-3.88,0.76-6.01-0.47
			c-3.97-2.3-7.09-7.69-7.09-12.29v-7.03h2v7.04c0,3.88,2.73,8.61,6.09,10.55c3.37,1.94,6.1,0.16,6.1-3.98v-36.6
			c0-2.13,0.72-3.63,1.88-4.33l0.2-0.11c1.07-0.54,2.47-0.42,4.01,0.46c3.36,1.94,6.09,6.88,6.09,11.02V388.5
			c0,11.05,7.76,24.48,17.32,30l1.92,1.11c9.57,5.52,17.32,1.24,17.32-9.55c0-10.8,0-19.55,0-19.55c0-3.52,1.18-6.02,3.09-7.19
			l0.39-0.22c1.79-0.89,4.12-0.7,6.68,0.77c5.61,3.24,10.15,11.46,10.15,18.37v29.09c0,5.53,3.64,12.1,8.13,14.69
			c4.48,2.59,8.12,0.22,8.12-5.31v-12.83c0-2.93,1.03-4.98,2.66-5.86l0.13-0.07c1.43-0.71,3.29-0.56,5.33,0.62
			c4.49,2.59,8.13,9.17,8.13,14.69v12.83c0,5.53,3.64,12.1,8.12,14.7c4.49,2.59,8.13,0.49,8.13-4.7c0-5.18,0-9.38,0-9.38H280.17z"/>
		<path class="st6" d="M227.42,409.78v-7.54c0-6.15-4.19-13.77-9.15-16.63c-1.95-1.13-3.7-1.35-4.95-0.63
			c-1.4,0.81-2.21,2.83-2.21,5.53v1.57c0-5.36,9.27-5.18,9.27,9.8c0,4.33,0,8.38,0,11.96L227.42,409.78z"/>
		<path class="st6" d="M259.92,439.14v-1.88c0-4.79-3.26-10.73-7.13-12.96c-1.42-0.82-2.68-1-3.55-0.5c-1,0.57-1.57,2.06-1.57,4.08
			v6.42c0-6.42,6.97-2.91,6.97,1.86c0,1.59,0,3.8,0,6.03L259.92,439.14z"/>
		<path class="st6" d="M170.55,210.72v-26.19v-1.16v-1.89c0-3.44-2.33-7.7-5.09-9.29c-0.9-0.52-1.69-0.65-2.17-0.38
			c-0.57,0.33-0.92,1.34-0.92,2.63v6.57c0-4.46,4.86-2.86,4.86,5.42c0,5.28,0,17.8,0,26.21L170.55,210.72z"/>
	</g>
	<g id="Text">
		<g>
			<path class="st2" d="M309.93,407.33c-0.77,0.44-1.39,1.52-1.39,2.41c0,0.89,0.62,1.25,1.39,0.8c0.77-0.44,1.39-1.52,1.39-2.41
				C311.33,407.25,310.7,406.89,309.93,407.33z"/>
			<path class="st2" d="M309.93,423.31c-0.77,0.44-1.39,1.52-1.39,2.41c0,0.89,0.62,1.25,1.39,0.8c0.77-0.44,1.39-1.52,1.39-2.41
				C311.33,423.23,310.7,422.87,309.93,423.31z"/>
			<path id="XMLID_1121_" class="st2" d="M301.03,395.56c0.68,0.57,1.91,0.79,2.74,0.49c0.83-0.3,0.96-1.01,0.28-1.58
				c-0.68-0.57-1.91-0.79-2.74-0.49C300.48,394.28,300.35,394.99,301.03,395.56z"/>
		</g>
		<g class="st18">
			<g>
				<path class="st9" d="M257.86,420.73c-0.17,0-0.34-0.09-0.43-0.25c-0.14-0.24-0.06-0.54,0.18-0.68l39.19-22.63
					c0.24-0.14,0.54-0.06,0.68,0.18c0.14,0.24,0.06,0.54-0.18,0.68l-39.19,22.63C258.03,420.7,257.94,420.73,257.86,420.73z"/>
			</g>
			<g>
				<path class="st9" d="M263.2,426.28c-0.17,0-0.34-0.09-0.43-0.25c-0.14-0.24-0.06-0.54,0.18-0.68l39.19-22.63
					c0.24-0.14,0.54-0.06,0.68,0.18c0.14,0.24,0.06,0.54-0.18,0.68l-39.19,22.63C263.37,426.26,263.29,426.28,263.2,426.28z"/>
			</g>
			<g>
				<path class="st9" d="M265.9,433.93c-0.17,0-0.34-0.09-0.43-0.25c-0.14-0.24-0.06-0.54,0.18-0.68l39.19-22.63
					c0.24-0.14,0.54-0.06,0.68,0.18c0.14,0.24,0.06,0.54-0.18,0.68l-39.19,22.63C266.08,433.91,265.99,433.93,265.9,433.93z"/>
			</g>
			<g>
				<path class="st9" d="M265.98,441.83c-0.17,0-0.34-0.09-0.43-0.25c-0.14-0.24-0.06-0.54,0.18-0.68l39.19-22.63
					c0.24-0.14,0.55-0.06,0.68,0.18c0.14,0.24,0.06,0.54-0.18,0.68l-39.19,22.63C266.15,441.81,266.07,441.83,265.98,441.83z"/>
			</g>
			<g>
				<path class="st9" d="M266.07,449.73c-0.17,0-0.34-0.09-0.43-0.25c-0.14-0.24-0.06-0.54,0.18-0.68l39.19-22.63
					c0.24-0.14,0.54-0.06,0.68,0.18c0.14,0.24,0.06,0.54-0.18,0.68l-39.19,22.63C266.24,449.71,266.16,449.73,266.07,449.73z"/>
			</g>
			<g>
				<path class="st9" d="M278.17,450.89v1.15l-9.15,5.28c-0.08,0.05-0.17,0.07-0.25,0.07c-0.17,0-0.34-0.09-0.43-0.25
					c-0.14-0.24-0.06-0.55,0.18-0.68L278.17,450.89z"/>
			</g>
			<g>
				<path class="st9" d="M278.17,459.52v0.57c0,0.2-0.01,0.4-0.02,0.59l-3.8,2.19c-0.08,0.05-0.16,0.07-0.25,0.07
					c-0.17,0-0.34-0.09-0.43-0.25c-0.14-0.24-0.06-0.54,0.18-0.68L278.17,459.52z"/>
			</g>
		</g>
		<g>
			<path class="st2" d="M277.4,368.35c-0.77,0.44-1.39,1.52-1.39,2.41c0,0.89,0.62,1.25,1.39,0.8c0.77-0.44,1.39-1.52,1.39-2.41
				C278.79,368.26,278.17,367.9,277.4,368.35z"/>
			<path class="st2" d="M277.4,385.79c-0.77,0.44-1.39,1.52-1.39,2.41c0,0.89,0.62,1.25,1.39,0.8c0.77-0.44,1.39-1.52,1.39-2.41
				C278.79,385.7,278.17,385.34,277.4,385.79z"/>
			<path class="st2" d="M278.79,404.03c0,0.15-0.02,0.3-0.06,0.45l-2.67,1.54c-0.03-0.11-0.05-0.24-0.05-0.38
				c0-0.89,0.62-1.97,1.39-2.41C278.17,402.78,278.79,403.14,278.79,404.03z"/>
			<path id="XMLID_1120_" class="st2" d="M266.62,356.23c0.68,0.57,1.91,0.79,2.74,0.49s0.96-1.01,0.28-1.58
				c-0.68-0.57-1.91-0.79-2.74-0.49C266.06,354.95,265.94,355.66,266.62,356.23z"/>
		</g>
		<g class="st19">
			<g>
				<path class="st9" d="M223.33,381.91c-0.17,0-0.34-0.09-0.43-0.25c-0.14-0.24-0.06-0.55,0.18-0.68l39.75-22.92
					c0.24-0.14,0.54-0.06,0.68,0.18c0.14,0.24,0.06,0.55-0.18,0.68l-39.75,22.92C223.5,381.89,223.42,381.91,223.33,381.91z"/>
			</g>
			<g>
				<path class="st9" d="M229.22,387.63c-0.17,0-0.34-0.09-0.43-0.25c-0.14-0.24-0.06-0.55,0.18-0.68l39.75-22.92
					c0.24-0.14,0.54-0.06,0.68,0.18c0.14,0.24,0.06,0.54-0.18,0.68l-39.75,22.92C229.39,387.61,229.31,387.63,229.22,387.63z"/>
			</g>
			<g>
				<path class="st9" d="M232.88,395.67c-0.17,0-0.34-0.09-0.43-0.25c-0.14-0.24-0.06-0.54,0.18-0.68l39.75-22.92
					c0.24-0.14,0.54-0.06,0.68,0.18c0.14,0.24,0.06,0.54-0.18,0.68l-39.75,22.92C233.05,395.65,232.96,395.67,232.88,395.67z"/>
			</g>
			<g>
				<path class="st9" d="M233.48,404.1c-0.17,0-0.34-0.09-0.43-0.25c-0.14-0.24-0.06-0.54,0.18-0.68l39.75-22.92
					c0.24-0.14,0.54-0.06,0.68,0.18c0.14,0.24,0.06,0.54-0.18,0.68l-39.75,22.92C233.65,404.08,233.57,404.1,233.48,404.1z"/>
			</g>
			<g>
				<path class="st9" d="M233.48,412.65c-0.17,0-0.34-0.09-0.43-0.25c-0.14-0.24-0.06-0.54,0.18-0.68l39.75-22.92
					c0.24-0.14,0.54-0.06,0.68,0.18c0.14,0.24,0.06,0.54-0.18,0.68l-39.75,22.92C233.65,412.62,233.57,412.65,233.48,412.65z"/>
			</g>
			<g>
				<path class="st9" d="M233.48,421.19c-0.17,0-0.34-0.09-0.43-0.25c-0.14-0.24-0.06-0.55,0.18-0.68l39.75-22.92
					c0.24-0.14,0.54-0.06,0.68,0.18c0.14,0.24,0.06,0.55-0.18,0.68l-39.75,22.92C233.65,421.17,233.57,421.19,233.48,421.19z"/>
			</g>
			<g>
				<path class="st9" d="M233.49,429.72c-0.17,0-0.34-0.09-0.43-0.25c-0.14-0.24-0.06-0.54,0.18-0.68l39.75-22.92
					c0.24-0.14,0.54-0.06,0.68,0.18c0.14,0.24,0.06,0.54-0.18,0.68l-39.75,22.92C233.66,429.7,233.57,429.72,233.49,429.72z"/>
			</g>
			<g>
				<path class="st9" d="M245.67,431.3v1.16l-9.47,5.46c-0.08,0.04-0.16,0.07-0.25,0.07c-0.17,0-0.34-0.09-0.43-0.25
					c-0.14-0.24-0.06-0.55,0.18-0.69L245.67,431.3z"/>
			</g>
			<g>
				<path class="st9" d="M245.67,440.64v0.07c0,0.39-0.02,0.76-0.06,1.12l-3.75,2.16c-0.08,0.05-0.17,0.07-0.25,0.07
					c-0.17,0-0.34-0.09-0.43-0.25c-0.14-0.24-0.06-0.54,0.18-0.68L245.67,440.64z"/>
			</g>
		</g>
		<g>
			<path id="XMLID_1126_" class="st2" d="M221.78,158.28c-0.77,0.44-1.39,1.52-1.39,2.41c0,0.89,0.62,1.25,1.39,0.8
				c0.77-0.44,1.39-1.52,1.39-2.41C223.17,158.2,222.55,157.84,221.78,158.28z"/>
			<path id="XMLID_1118_" class="st2" d="M215.73,144.04c0.68,0.57,1.91,0.79,2.74,0.49c0.83-0.3,0.96-1.01,0.28-1.58
				c-0.68-0.57-1.91-0.79-2.74-0.49C215.17,142.76,215.05,143.47,215.73,144.04z"/>
			<path class="st2" d="M221.78,183.1c-0.77,0.44-1.39,1.52-1.39,2.41c0,0.89,0.62,1.25,1.39,0.8c0.77-0.44,1.39-1.52,1.39-2.41
				C223.17,183.01,222.55,182.66,221.78,183.1z"/>
			<path class="st2" d="M221.78,199.64c-0.77,0.44-1.39,1.52-1.39,2.41c0,0.89,0.62,1.25,1.39,0.8c0.77-0.44,1.39-1.52,1.39-2.41
				C223.17,199.56,222.55,199.2,221.78,199.64z"/>
			<path class="st2" d="M221.78,216.18c-0.77,0.44-1.39,1.52-1.39,2.41c0,0.89,0.62,1.25,1.39,0.8c0.77-0.44,1.39-1.52,1.39-2.41
				C223.17,216.1,222.55,215.74,221.78,216.18z"/>
			<path class="st2" d="M221.78,232.73c-0.77,0.44-1.39,1.52-1.39,2.41c0,0.89,0.62,1.25,1.39,0.8c0.77-0.44,1.39-1.52,1.39-2.41
				C223.17,232.64,222.55,232.28,221.78,232.73z"/>
			<path class="st2" d="M221.78,249.27c-0.77,0.44-1.39,1.52-1.39,2.41c0,0.89,0.62,1.25,1.39,0.8c0.77-0.44,1.39-1.52,1.39-2.41
				C223.17,249.19,222.55,248.83,221.78,249.27z"/>
			<path class="st2" d="M221.78,265.81c-0.77,0.44-1.39,1.52-1.39,2.41c0,0.89,0.62,1.25,1.39,0.8c0.77-0.44,1.39-1.52,1.39-2.41
				C223.17,265.73,222.55,265.37,221.78,265.81z"/>
			<path class="st2" d="M221.78,282.36c-0.77,0.44-1.39,1.52-1.39,2.41c0,0.89,0.62,1.25,1.39,0.8c0.77-0.44,1.39-1.52,1.39-2.41
				C223.17,282.27,222.55,281.91,221.78,282.36z"/>
			<path class="st2" d="M221.78,298.9c-0.77,0.44-1.39,1.52-1.39,2.41c0,0.89,0.62,1.25,1.39,0.8c0.77-0.44,1.39-1.52,1.39-2.41
				C223.17,298.81,222.55,298.45,221.78,298.9z"/>
			<path class="st2" d="M221.78,315.44c-0.77,0.44-1.39,1.52-1.39,2.41c0,0.89,0.62,1.25,1.39,0.8c0.77-0.44,1.39-1.52,1.39-2.41
				C223.17,315.36,222.55,315,221.78,315.44z"/>
			<path class="st2" d="M221.78,331.98c-0.77,0.44-1.39,1.52-1.39,2.41c0,0.89,0.62,1.25,1.39,0.8c0.77-0.44,1.39-1.52,1.39-2.41
				C223.17,331.9,222.55,331.54,221.78,331.98z"/>
			<path class="st2" d="M221.78,348.53c-0.77,0.44-1.39,1.52-1.39,2.41c0,0.89,0.62,1.25,1.39,0.8c0.77-0.44,1.39-1.52,1.39-2.41
				C223.17,348.44,222.55,348.08,221.78,348.53z"/>
			<path id="XMLID_1125_" class="st2" d="M221.78,365.07c-0.77,0.44-1.39,1.52-1.39,2.41c0,0.89,0.62,1.25,1.39,0.8
				c0.77-0.44,1.39-1.52,1.39-2.41C223.17,364.98,222.55,364.63,221.78,365.07z"/>
		</g>
		<g class="st20">
			<g>
				<path class="st9" d="M172.63,169.74c-0.17,0-0.34-0.09-0.43-0.25c-0.14-0.24-0.06-0.54,0.18-0.68l40.54-23.41
					c0.24-0.14,0.54-0.06,0.68,0.18c0.14,0.24,0.06,0.54-0.18,0.68l-40.54,23.41C172.8,169.72,172.72,169.74,172.63,169.74z"/>
			</g>
			<g>
				<path class="st9" d="M176.34,176.88c-0.17,0-0.34-0.09-0.43-0.25c-0.14-0.24-0.06-0.54,0.18-0.68l40.54-23.41
					c0.24-0.14,0.54-0.06,0.68,0.18c0.14,0.24,0.06,0.54-0.18,0.68l-40.54,23.41C176.51,176.86,176.43,176.88,176.34,176.88z"/>
			</g>
			<g>
				<path class="st9" d="M177.34,185.07c-0.17,0-0.34-0.09-0.43-0.25c-0.14-0.24-0.06-0.54,0.18-0.68l40.54-23.41
					c0.24-0.14,0.54-0.06,0.68,0.18c0.14,0.24,0.06,0.54-0.18,0.68l-40.54,23.41C177.51,185.05,177.42,185.07,177.34,185.07z"/>
			</g>
			<g>
				<path class="st9" d="M177.34,193.37c-0.17,0-0.34-0.09-0.43-0.25c-0.14-0.24-0.06-0.54,0.18-0.68l40.54-23.41
					c0.24-0.14,0.54-0.06,0.68,0.18c0.14,0.24,0.06,0.54-0.18,0.68l-40.54,23.41C177.51,193.35,177.42,193.37,177.34,193.37z"/>
			</g>
			<g>
				<path class="st9" d="M177.34,201.67c-0.17,0-0.34-0.09-0.43-0.25c-0.14-0.24-0.06-0.54,0.18-0.68l40.54-23.41
					c0.24-0.14,0.54-0.06,0.68,0.18c0.14,0.24,0.06,0.54-0.18,0.68l-40.54,23.41C177.51,201.65,177.42,201.67,177.34,201.67z"/>
			</g>
			<g>
				<path class="st9" d="M177.34,209.97c-0.17,0-0.34-0.09-0.43-0.25c-0.14-0.24-0.06-0.54,0.18-0.68l40.54-23.41
					c0.24-0.14,0.54-0.06,0.68,0.18c0.14,0.24,0.06,0.54-0.18,0.68l-40.54,23.41C177.51,209.95,177.42,209.97,177.34,209.97z"/>
			</g>
			<g>
				<path class="st9" d="M177.34,218.27c-0.17,0-0.34-0.09-0.43-0.25c-0.14-0.24-0.06-0.54,0.18-0.68l40.54-23.41
					c0.24-0.14,0.54-0.06,0.68,0.18c0.14,0.24,0.06,0.54-0.18,0.68l-40.54,23.41C177.51,218.25,177.42,218.27,177.34,218.27z"/>
			</g>
			<g>
				<path class="st9" d="M177.34,226.57c-0.17,0-0.34-0.09-0.43-0.25c-0.14-0.24-0.06-0.54,0.18-0.68l40.54-23.41
					c0.24-0.14,0.54-0.06,0.68,0.18c0.14,0.24,0.06,0.54-0.18,0.68l-40.54,23.41C177.51,226.55,177.42,226.57,177.34,226.57z"/>
			</g>
			<g>
				<path class="st9" d="M177.34,234.87c-0.17,0-0.34-0.09-0.43-0.25c-0.14-0.24-0.06-0.54,0.18-0.68l40.54-23.41
					c0.24-0.14,0.54-0.06,0.68,0.18c0.14,0.24,0.06,0.54-0.18,0.68l-40.54,23.41C177.51,234.85,177.42,234.87,177.34,234.87z"/>
			</g>
			<g>
				<path class="st9" d="M177.34,243.17c-0.17,0-0.34-0.09-0.43-0.25c-0.14-0.24-0.06-0.54,0.18-0.68l40.54-23.41
					c0.24-0.14,0.54-0.06,0.68,0.18c0.14,0.24,0.06,0.54-0.18,0.68l-40.54,23.41C177.51,243.15,177.42,243.17,177.34,243.17z"/>
			</g>
			<g>
				<path class="st9" d="M177.34,251.47c-0.17,0-0.34-0.09-0.43-0.25c-0.14-0.24-0.06-0.54,0.18-0.68l40.54-23.41
					c0.24-0.14,0.54-0.06,0.68,0.18c0.14,0.24,0.06,0.54-0.18,0.68l-40.54,23.41C177.51,251.44,177.42,251.47,177.34,251.47z"/>
			</g>
			<g>
				<path class="st9" d="M177.34,259.77c-0.17,0-0.34-0.09-0.43-0.25c-0.14-0.24-0.06-0.54,0.18-0.68l40.54-23.41
					c0.24-0.14,0.54-0.06,0.68,0.18c0.14,0.24,0.06,0.55-0.18,0.68l-40.54,23.41C177.51,259.74,177.42,259.77,177.34,259.77z"/>
			</g>
			<g>
				<path class="st9" d="M177.34,268.06c-0.17,0-0.34-0.09-0.43-0.25c-0.14-0.24-0.06-0.54,0.18-0.68l40.54-23.41
					c0.24-0.14,0.54-0.06,0.68,0.18c0.14,0.24,0.06,0.54-0.18,0.68L177.59,268C177.51,268.04,177.42,268.06,177.34,268.06z"/>
			</g>
			<g>
				<path class="st9" d="M177.34,276.36c-0.17,0-0.34-0.09-0.43-0.25c-0.14-0.24-0.06-0.54,0.18-0.68l40.54-23.41
					c0.24-0.14,0.54-0.06,0.68,0.18c0.14,0.24,0.06,0.54-0.18,0.68l-40.54,23.41C177.51,276.34,177.42,276.36,177.34,276.36z"/>
			</g>
			<g>
				<path class="st9" d="M177.34,284.66c-0.17,0-0.34-0.09-0.43-0.25c-0.14-0.24-0.06-0.54,0.18-0.68l40.54-23.41
					c0.24-0.14,0.54-0.06,0.68,0.18c0.14,0.24,0.06,0.54-0.18,0.68l-40.54,23.41C177.51,284.64,177.42,284.66,177.34,284.66z"/>
			</g>
			<g>
				<path class="st9" d="M177.34,292.96c-0.17,0-0.34-0.09-0.43-0.25c-0.14-0.24-0.06-0.54,0.18-0.68l40.54-23.41
					c0.24-0.14,0.54-0.06,0.68,0.18c0.14,0.24,0.06,0.54-0.18,0.68l-40.54,23.41C177.51,292.94,177.42,292.96,177.34,292.96z"/>
			</g>
			<g>
				<path class="st9" d="M177.34,301.26c-0.17,0-0.34-0.09-0.43-0.25c-0.14-0.24-0.06-0.54,0.18-0.68l40.54-23.41
					c0.24-0.14,0.54-0.06,0.68,0.18c0.14,0.24,0.06,0.54-0.18,0.68l-40.54,23.41C177.51,301.24,177.42,301.26,177.34,301.26z"/>
			</g>
			<g>
				<path class="st9" d="M177.34,309.56c-0.17,0-0.34-0.09-0.43-0.25c-0.14-0.24-0.06-0.54,0.18-0.68l40.54-23.41
					c0.24-0.14,0.54-0.06,0.68,0.18c0.14,0.24,0.06,0.54-0.18,0.68l-40.54,23.41C177.51,309.54,177.42,309.56,177.34,309.56z"/>
			</g>
			<g>
				<path class="st9" d="M177.34,317.86c-0.17,0-0.34-0.09-0.43-0.25c-0.14-0.24-0.06-0.54,0.18-0.68l40.54-23.41
					c0.24-0.14,0.54-0.06,0.68,0.18c0.14,0.24,0.06,0.54-0.18,0.68l-40.54,23.41C177.51,317.84,177.42,317.86,177.34,317.86z"/>
			</g>
			<g>
				<path class="st9" d="M177.34,326.16c-0.17,0-0.34-0.09-0.43-0.25c-0.14-0.24-0.06-0.54,0.18-0.68l40.54-23.41
					c0.24-0.14,0.54-0.06,0.68,0.18c0.14,0.24,0.06,0.54-0.18,0.68l-40.54,23.41C177.51,326.14,177.42,326.16,177.34,326.16z"/>
			</g>
			<g>
				<path class="st9" d="M177.34,334.46c-0.17,0-0.34-0.09-0.43-0.25c-0.14-0.24-0.06-0.54,0.18-0.68l40.54-23.41
					c0.24-0.14,0.54-0.06,0.68,0.18c0.14,0.24,0.06,0.54-0.18,0.68l-40.54,23.41C177.51,334.44,177.42,334.46,177.34,334.46z"/>
			</g>
			<g>
				<path class="st9" d="M177.34,342.76c-0.17,0-0.34-0.09-0.43-0.25c-0.14-0.24-0.06-0.54,0.18-0.68l40.54-23.41
					c0.24-0.14,0.54-0.06,0.68,0.18c0.14,0.24,0.06,0.54-0.18,0.68l-40.54,23.41C177.51,342.73,177.42,342.76,177.34,342.76z"/>
			</g>
			<g>
				<path class="st9" d="M177.34,351.06c-0.17,0-0.34-0.09-0.43-0.25c-0.14-0.24-0.06-0.54,0.18-0.68l40.54-23.41
					c0.24-0.14,0.54-0.06,0.68,0.18c0.14,0.24,0.06,0.54-0.18,0.68l-40.54,23.41C177.51,351.03,177.42,351.06,177.34,351.06z"/>
			</g>
			<g>
				<path class="st9" d="M177.34,359.35c-0.17,0-0.34-0.09-0.43-0.25c-0.14-0.24-0.06-0.54,0.18-0.68l40.54-23.41
					c0.24-0.14,0.54-0.06,0.68,0.18c0.14,0.24,0.06,0.54-0.18,0.68l-40.54,23.41C177.51,359.33,177.42,359.35,177.34,359.35z"/>
			</g>
			<g>
				<path class="st9" d="M177.34,367.65c-0.17,0-0.34-0.09-0.43-0.25c-0.14-0.24-0.06-0.54,0.18-0.68l40.54-23.41
					c0.24-0.14,0.54-0.06,0.68,0.18c0.14,0.24,0.06,0.54-0.18,0.68l-40.54,23.41C177.51,367.63,177.42,367.65,177.34,367.65z"/>
			</g>
			<g>
				<path class="st9" d="M177.34,375.95c-0.17,0-0.34-0.09-0.43-0.25c-0.14-0.24-0.06-0.54,0.18-0.68l40.54-23.41
					c0.24-0.14,0.54-0.06,0.68,0.18c0.14,0.24,0.06,0.54-0.18,0.68l-40.54,23.41C177.51,375.93,177.42,375.95,177.34,375.95z"/>
			</g>
			<g>
				<path class="st9" d="M177.34,384.25c-0.17,0-0.34-0.09-0.43-0.25c-0.14-0.24-0.06-0.54,0.18-0.68l40.54-23.41
					c0.24-0.14,0.54-0.06,0.68,0.18c0.14,0.24,0.06,0.54-0.18,0.68l-40.54,23.41C177.51,384.23,177.42,384.25,177.34,384.25z"/>
			</g>
			<g>
				<path class="st9" d="M177.61,392.31c-0.17,0-0.34-0.09-0.43-0.25c-0.14-0.24-0.06-0.54,0.18-0.68l40.54-23.41
					c0.24-0.14,0.54-0.06,0.68,0.18c0.14,0.24,0.06,0.54-0.18,0.68l-40.54,23.41C177.78,392.29,177.7,392.31,177.61,392.31z"/>
			</g>
			<g>
				<path class="st9" d="M179.8,400.29c-0.17,0-0.34-0.09-0.43-0.25c-0.14-0.24-0.06-0.54,0.18-0.68l40.54-23.41
					c0.24-0.14,0.54-0.06,0.68,0.18c0.14,0.24,0.06,0.54-0.18,0.68l-40.54,23.41C179.97,400.27,179.88,400.29,179.8,400.29z"/>
			</g>
			<g>
				<path class="st9" d="M183.57,406.99l25.54-14.74v1.15l-25.04,14.46c-0.08,0.04-0.17,0.06-0.25,0.06c-0.18,0-0.35-0.09-0.44-0.25
					C183.24,407.44,183.33,407.13,183.57,406.99z"/>
			</g>
			<g>
				<path class="st9" d="M190.19,412.76l18.92-10.88v1.15l-18.42,10.59c-0.08,0.05-0.16,0.07-0.25,0.07c-0.17,0-0.34-0.09-0.43-0.25
					C189.87,413.2,189.95,412.9,190.19,412.76z"/>
			</g>
			<g>
				<path class="st9" d="M198.34,416.48l10.77-6.16c-0.01,0.4-0.02,0.79-0.04,1.17l-10.23,5.85c-0.08,0.05-0.16,0.07-0.25,0.07
					c-0.17,0-0.34-0.09-0.43-0.25C198.02,416.92,198.1,416.62,198.34,416.48z"/>
			</g>
		</g>
		<g class="st20">
			<path class="st9" d="M160.37,196.47v1.15l-8.45,4.88c-0.08,0.05-0.16,0.07-0.25,0.07c-0.17,0-0.34-0.09-0.43-0.25
				c-0.14-0.24-0.06-0.54,0.18-0.68L160.37,196.47z"/>
			<path class="st9" d="M160.37,205.73v1.15l-6.26,3.61c-0.08,0.05-0.16,0.07-0.25,0.07c-0.17,0-0.34-0.09-0.43-0.25
				c-0.14-0.24-0.06-0.55,0.18-0.68L160.37,205.73z"/>
		</g>
	</g>
	<g id="Hand">
		<g id="XMLID_3994_">
			<path id="XMLID_3995_" class="st12" d="M225.36,154.66c0,0-0.69,6.28-0.84,7.77c-0.15,1.49-4.92,4.98-8.19,6.53
				c-3.26,1.55-6.82,3.33-4.35,7.84c2.28,4.16,8.1,4.17,10.95,3.53c2.85-0.63,6.3-4.08,7.07-8.78c0.98-6-1.15-11.84-0.95-15.28
				C229.26,152.83,226.73,152.39,225.36,154.66z"/>
		</g>
	</g>
</g>
</svg>
