<svg id="Layer_5" enable-background="new 0 0 64 64" height="512" viewBox="0 0 64 64" width="512" xmlns="http://www.w3.org/2000/svg"><path d="m26 18.24v-12.24h4 16v9h-4v4h-2v8h-5.24c-.45-2.19-1.55-4.16-3.08-5.68-1.52-1.53-3.49-2.63-5.68-3.08z" fill="#e6e9ed"/><path d="m46 2v4h-16l2-4z" fill="#ccd1d9"/><path d="m40 27v-8h2 18v24.37c-1.79-2.71-4.66-4.65-8-5.2v-7.17-4z" fill="#dfb28b"/><path d="m60 15v4h-18v-4h4 4 6z" fill="#cf9e76"/><path d="m35 37v-6h17v7.17c-.65-.11-1.32-.17-2-.17-6.63 0-12 5.37-12 12 0 .98.12 1.93.34 2.84-.28-.14-.57-.27-.86-.38l-5.48-2.13v-10.33c1.66 0 3-1.34 3-3z" fill="#e6e9ed"/><path d="m52 27v4h-17v-1.69c0-.79-.08-1.56-.24-2.31h5.24z" fill="#ccd1d9"/><path d="m36 62h-26-8c0-2.11.65-4.11 1.79-5.78 1.13-1.66 2.77-3 4.73-3.76l9.57-3.72c.31-.12.59-.29.84-.5l.07.08.21.79c.47 1.7 2.02 2.89 3.79 2.89.88 0 1.72-.3 2.38-.81.67-.51 1.18-1.23 1.41-2.08l.21-.79.07-.08c.25.21.53.38.84.5l4.09 1.59 5.48 2.13c.29.11.58.24.86.38v.01c2.94 1.46 4.98 4.25 5.52 7.46.09.55.14 1.12.14 1.69z" fill="#ff826e"/><path d="m60 43.37c1.27 1.89 2 4.17 2 6.63 0 6.63-5.37 12-12 12-2.24 0-4.34-.62-6.14-1.69-.54-3.21-2.58-6-5.52-7.46v-.01c-.22-.91-.34-1.86-.34-2.84 0-6.63 5.37-12 12-12 .68 0 1.35.06 2 .17 3.34.55 6.21 2.49 8 5.2z" fill="#fcd770"/><g fill="#f0d0b4"><path d="m26 45.95c0 .9.4 1.74 1.07 2.29l-.07.08-.21.79c-.23.85-.74 1.57-1.41 2.08-.66.51-1.5.81-2.38.81-1.77 0-3.32-1.19-3.79-2.89l-.21-.79-.07-.08c.67-.55 1.07-1.39 1.07-2.29v-1.58c.9.67 1.91 1.22 3 1.63 1.09-.41 2.1-.96 3-1.63z"/><path d="m35 37c0 1.66-1.34 3-3 3h-2.32-.01c.86-1.68 1.33-3.57 1.33-5.54v-.46h1c.83 0 1.58.34 2.12.88s.88 1.29.88 2.12z"/><path d="m31 34v.46c0 1.97-.47 3.86-1.33 5.54-.25.52-.54 1.01-.87 1.48-.76 1.1-1.71 2.08-2.8 2.89-.9.67-1.91 1.22-3 1.63-1.09-.41-2.1-.96-3-1.63-1.56-1.15-2.82-2.65-3.67-4.37-.86-1.68-1.33-3.57-1.33-5.54v-.46-3h.76c1.36 0 2.68-.27 3.92-.78 1.23-.51 2.36-1.26 3.32-2.22 1.92 1.92 4.53 3 7.24 3h.76z"/><path d="m14 40c-.83 0-1.58-.34-2.12-.88s-.88-1.29-.88-2.12c0-1.66 1.34-3 3-3h1v.46c0 1.97.47 3.86 1.33 5.54h-.01z"/></g><path d="m14 34c-1.66 0-3 1.34-3 3v-9.88c0-2.42 1.65-4.53 4-5.12l.69-.69c2.12-2.12 5-3.31 8-3.31.79 0 1.56.08 2.31.24 2.19.45 4.16 1.55 5.68 3.08 1.53 1.52 2.63 3.49 3.08 5.68.16.75.24 1.52.24 2.31v1.69 6c0-.83-.34-1.58-.88-2.12s-1.29-.88-2.12-.88h-1v-3h-.76c-2.71 0-5.32-1.08-7.24-3-.96.96-2.09 1.71-3.32 2.22-1.24.51-2.56.78-3.92.78h-.76v3z" fill="#b27946"/><path d="m50 45c1.103 0 2 .897 2 2h2c0-1.859-1.279-3.411-3-3.858v-2.142h-2v2h-3v4c0 2.206 1.794 4 4 4 1.103 0 2 .897 2 2v2h-2c-1.103 0-2-.897-2-2h-2c0 1.859 1.279 3.411 3 3.858v2.142h2v-2h3v-4c0-2.206-1.794-4-4-4-1.103 0-2-.897-2-2v-2z"/><path d="m61 43.104v-24.104-1-4h-4v-8h-2v8h-4v-6h-2v6h-2v-8-1-4h-15.618l-2 4h-4.382v12.072c-.432-.046-.87-.072-1.313-.072-3.29 0-6.382 1.281-8.707 3.606l-.5.5c-2.652.792-4.48 3.227-4.48 6.017v9.877c0 2.206 1.794 4 4 4h1.739c.833 1.471 1.937 2.78 3.261 3.847v1.101c0 .83-.501 1.562-1.275 1.864l-9.562 3.719c-4.351 1.692-7.163 5.801-7.163 10.469v1h44v-1-.001c1.576.656 3.276 1.001 5 1.001 7.168 0 13-5.832 13-13 0-2.535-.74-4.894-2-6.896zm-23.927 8.13-4.073-1.584v-8.792c1.721-.447 3-1.999 3-3.858v-5h15v5.051c-.331-.026-.662-.051-1-.051-7.168 0-13 5.832-13 13 0 .413.035.824.073 1.234zm-10.073-5.286v-1.101c1.324-1.067 2.429-2.377 3.261-3.847h.739v7.872l-2.724-1.059c-.775-.302-1.276-1.035-1.276-1.865zm4.979-10.948h.021c1.103 0 2 .897 2 2s-.897 2-2 2h-.817c.464-1.268.738-2.614.796-4zm19.021-7v2h-15v-.687c0-.444-.026-.882-.072-1.313zm-10-2v-6h18v20.641c-1.646-1.583-3.706-2.733-6-3.278v-11.363zm18-8h-16v-2h16zm-26.382-15h12.382v2h-13.382zm-5.618 4h18v7h-4v4h-2v8h-3.466c-1.156-4.127-4.407-7.378-8.534-8.534zm-11.758 15.97.27-.067.882-.882c1.947-1.948 4.537-3.021 7.293-3.021 5.686 0 10.313 4.626 10.313 10.313v4.243c-.591-.344-1.268-.556-2-.556v-3h-1.758c-2.469 0-4.789-.961-6.535-2.707l-.707-.707-.707.707c-1.746 1.746-4.066 2.707-6.535 2.707h-1.758v3c-.732 0-1.409.212-2 .556v-6.433c0-1.968 1.333-3.675 3.242-4.153zm-1.242 16.03c-1.103 0-2-.897-2-2s.897-2 2-2h.021c.057 1.386.331 2.732.796 4zm2-4.544v-2.458c2.591-.055 5.037-.981 7-2.64 1.963 1.659 4.409 2.585 7 2.64v2.458c0 4.569-2.798 8.729-7 10.469-4.202-1.739-7-5.9-7-10.469zm6.648 12.481.352.131.352-.132c.578-.217 1.132-.478 1.665-.768.047.872.369 1.676.902 2.32l-.096.354c-.346 1.271-1.507 2.158-2.823 2.158s-2.477-.887-2.822-2.157l-.096-.354c.533-.644.855-1.448.902-2.321.533.291 1.086.552 1.664.769zm14.352 14.063v-4h-2v4h-24v-4h-2v4h-5.947c.363-3.415 2.572-6.337 5.834-7.605l9.484-3.688c.69 1.951 2.535 3.293 4.629 3.293s3.94-1.342 4.629-3.294l9.484 3.688c3.262 1.269 5.471 4.19 5.834 7.605h-5.947zm13 0c-1.843 0-3.643-.479-5.25-1.354-.667-3.163-2.659-5.873-5.514-7.454-.146-.72-.236-1.453-.236-2.192 0-6.065 4.935-11 11-11s11 4.935 11 11-4.935 11-11 11z"/><path d="m43 22h14v2h-14z"/><path d="m38 34h11v2h-11z"/><path d="m29 9h2v2h-2z"/><path d="m33 9h2v2h-2z"/><path d="m41 9h2v2h-2z"/><path d="m37 9h2v2h-2z"/><path d="m37 13h2v2h-2z"/><path d="m29 13h2v2h-2z"/><path d="m33 13h2v2h-2z"/></svg>